<?xml version="1.0" standalone="no"?>
<!DOCTYPE svg PUBLIC "-//W3C//DTD SVG 20010904//EN"
 "http://www.w3.org/TR/2001/REC-SVG-20010904/DTD/svg10.dtd">
<svg version="1.0" xmlns="http://www.w3.org/2000/svg"
 width="512.000000pt" height="512.000000pt" viewBox="0 0 512.000000 512.000000"
 preserveAspectRatio="xMidYMid meet">

<g transform="translate(0.000000,512.000000) scale(0.100000,-0.100000)"
fill="#000000" stroke="none">
<path d="M2375 5114 c-498 -49 -870 -179 -1252 -437 -74 -50 -108 -67 -122
-62 -13 4 -45 53 -88 132 -79 146 -101 166 -176 160 -27 -2 -56 -12 -68 -23
-11 -10 -50 -72 -87 -139 l-66 -121 -121 -66 c-67 -37 -129 -76 -139 -87 -11
-12 -21 -41 -23 -68 -6 -75 14 -97 160 -176 74 -40 128 -76 132 -87 4 -13 -9
-39 -40 -81 -244 -332 -404 -737 -467 -1184 -19 -138 -16 -524 5 -665 90 -586
331 -1065 738 -1467 510 -504 1177 -765 1884 -739 501 18 926 155 1342 433 81
54 118 73 132 68 12 -4 46 -53 88 -132 79 -146 101 -166 176 -160 27 2 56 12
68 23 11 10 50 72 87 139 l66 121 121 66 c67 37 129 76 139 87 11 12 21 41 23
68 6 75 -14 97 -160 176 -76 42 -129 76 -132 88 -4 13 3 32 23 57 145 186 286
459 372 722 82 247 116 442 126 715 27 709 -241 1388 -747 1894 -398 397 -881
639 -1449 726 -100 15 -458 28 -545 19z m105 -293 l0 -150 -42 -5 c-24 -3 -74
-8 -113 -11 -369 -32 -821 -226 -1117 -479 -43 -36 -81 -66 -86 -66 -4 0 -25
17 -45 38 -44 45 -47 40 65 101 112 61 142 106 119 182 -9 28 -23 47 -53 66
l-40 27 22 18 c40 32 194 125 279 168 300 150 659 245 979 259 l32 1 0 -149z
m423 123 c458 -66 869 -252 1222 -553 l87 -74 -103 -103 c-57 -57 -108 -104
-112 -104 -5 0 -31 20 -59 45 -109 98 -333 247 -446 297 -54 24 -94 12 -113
-34 -20 -48 3 -75 103 -130 582 -315 957 -877 1028 -1540 50 -477 -97 -987
-399 -1383 -64 -85 -232 -256 -321 -328 -387 -313 -891 -469 -1377 -429 -497
42 -920 242 -1263 598 -156 162 -254 302 -351 499 -331 681 -239 1495 238
2085 72 89 243 257 328 321 478 365 1103 495 1677 349 93 -24 126 -25 150 -3
24 22 24 84 -1 107 -35 31 -253 76 -493 101 l-58 6 0 150 0 150 83 -6 c45 -4
126 -13 180 -21z m-2088 -329 c53 -98 65 -109 184 -173 l93 -50 -88 -48 c-132
-70 -135 -73 -198 -189 l-58 -107 -50 93 c-64 119 -75 131 -173 184 -131 72
-129 63 -24 120 51 28 102 57 113 66 12 10 46 63 76 118 63 116 53 117 125
-14z m3665 -600 c231 -302 391 -670 454 -1047 20 -117 38 -316 31 -329 -8 -12
-295 -12 -295 0 0 5 -5 55 -10 112 -43 435 -209 835 -477 1153 -32 38 -62 75
-68 82 -7 11 16 40 95 119 l105 106 48 -53 c26 -29 79 -93 117 -143z m-3503
23 c18 -18 33 -36 33 -40 0 -5 -30 -43 -66 -86 -253 -296 -447 -747 -479
-1117 -3 -38 -8 -91 -11 -118 l-6 -48 -146 3 -147 3 3 80 c6 193 63 469 137
671 52 143 163 362 245 487 l72 108 28 -45 c22 -34 38 -48 69 -57 75 -22 120
6 181 116 23 41 44 75 48 75 3 0 21 -14 39 -32z m-523 -1600 c3 -24 8 -74 11
-113 32 -369 226 -821 479 -1117 36 -43 66 -81 66 -85 0 -5 -47 -55 -104 -112
l-103 -103 -74 87 c-339 398 -531 866 -574 1403 l-6 82 150 0 150 0 5 -42z
m4511 -35 c-19 -239 -69 -477 -140 -669 -53 -145 -163 -364 -245 -487 l-72
-108 -28 44 c-32 51 -80 73 -134 63 -41 -8 -73 -42 -121 -128 -20 -38 -39 -68
-43 -68 -9 0 -72 63 -72 72 0 5 30 43 66 86 248 289 434 716 474 1084 6 57 13
122 16 146 l5 42 150 0 151 0 -7 -77z m-471 -1541 c11 -13 57 -43 101 -67 130
-71 127 -64 43 -109 -140 -75 -142 -78 -206 -192 l-59 -106 -20 34 c-11 18
-37 62 -56 99 -46 82 -60 95 -176 157 l-93 50 107 58 c116 63 119 66 189 198
l48 88 50 -93 c28 -52 60 -104 72 -117z m-3286 82 c290 -248 715 -434 1084
-474 57 -6 122 -13 146 -16 l42 -5 0 -150 0 -150 -72 6 c-555 46 -1012 232
-1413 574 l-87 74 103 103 c57 57 107 104 112 104 4 0 42 -30 85 -66z m2837
26 c21 -22 37 -41 34 -43 -2 -2 -40 -23 -84 -46 -44 -24 -92 -55 -107 -69 -57
-53 -45 -144 24 -190 l40 -26 -28 -22 c-49 -40 -229 -143 -336 -193 -274 -129
-546 -200 -870 -226 l-78 -7 0 151 0 150 43 5 c23 3 88 10 145 16 281 31 619
154 872 317 93 61 234 168 264 202 26 29 36 27 81 -19z"/>
<path d="M2295 4324 c-739 -115 -1329 -672 -1480 -1398 -13 -62 -26 -147 -30
-189 -7 -72 -6 -77 18 -101 32 -32 71 -33 101 -3 18 18 25 40 30 93 64 629
504 1180 1101 1380 204 68 274 78 525 78 251 0 324 -11 528 -79 463 -155 862
-554 1017 -1017 68 -204 79 -277 79 -528 0 -251 -11 -324 -79 -528 -155 -463
-554 -862 -1017 -1017 -204 -68 -277 -79 -528 -79 -251 0 -321 10 -525 78
-559 188 -985 684 -1084 1267 -16 90 -24 117 -41 131 -49 40 -120 4 -120 -60
0 -17 9 -79 21 -138 87 -453 366 -873 751 -1132 201 -135 426 -227 678 -278
111 -22 416 -30 536 -15 697 91 1270 567 1482 1232 56 173 73 278 79 476 6
210 -4 320 -49 497 -176 702 -754 1222 -1476 1331 -122 19 -395 18 -517 -1z"/>
<path d="M1750 3685 c-85 -26 -160 -129 -160 -218 0 -81 57 -169 134 -209 36
-19 64 -22 236 -28 184 -6 198 -7 250 -33 56 -27 140 -91 140 -107 0 -5 -134
-10 -298 -12 l-299 -3 -49 -30 c-30 -19 -60 -49 -79 -79 -55 -89 -37 -213 42
-288 58 -55 77 -58 393 -58 161 0 290 -4 290 -9 0 -12 -67 -71 -111 -98 -54
-34 -143 -53 -244 -53 -122 0 -175 -19 -241 -84 -80 -81 -105 -190 -68 -302
15 -44 60 -92 423 -457 223 -225 422 -417 441 -427 111 -57 245 -18 308 89 22
38 27 58 27 116 0 47 -6 81 -18 102 -22 42 -180 207 -222 233 -57 35 -115 3
-115 -63 0 -23 21 -51 105 -137 118 -121 126 -141 76 -191 -32 -31 -50 -35
-84 -18 -31 16 -775 758 -793 791 -20 38 -17 97 6 135 29 49 66 63 163 63 185
0 320 53 429 168 62 66 128 175 128 213 0 10 -11 31 -24 46 l-24 28 -367 5
-367 5 -19 24 c-27 33 -24 68 10 102 l29 29 357 0 356 0 24 25 c33 32 31 53
-9 133 -61 121 -162 211 -295 264 -49 19 -82 22 -249 27 l-194 6 -24 28 c-32
38 -31 72 5 108 l29 29 762 0 762 0 29 -29 c36 -36 37 -70 5 -108 l-24 -28
-352 -5 c-333 -5 -352 -6 -366 -24 -23 -32 -16 -63 31 -144 25 -42 57 -115 72
-162 14 -47 34 -93 45 -102 18 -16 47 -18 290 -18 l270 0 29 -29 c34 -34 37
-69 10 -102 -19 -24 -20 -24 -300 -29 -324 -6 -310 -2 -337 -106 -25 -93 -91
-211 -164 -288 -106 -113 -212 -173 -378 -216 -34 -9 -46 -18 -57 -42 -20 -49
-4 -75 109 -187 109 -107 135 -119 183 -86 49 34 35 91 -41 164 l-36 35 92 48
c217 115 348 271 433 516 3 9 61 12 245 12 262 0 287 4 343 58 49 46 71 100
72 173 0 56 -4 73 -30 115 -19 30 -49 60 -79 79 l-49 30 -249 5 -250 5 -27 72
-28 71 271 4 c257 3 273 4 312 25 78 42 134 131 134 216 0 87 -77 186 -163
212 -72 21 -1547 21 -1617 0z"/>
</g>
</svg>
